# xmcd
#
# Track frame offsets: 
#        150
#        12750
#        26270
#        44275
#        62985
#        81228
#        99923
#        115393
#        132395
#        148899
#        159812
#        172049
#        185549
#        199762
#        218912
#        230687
#        245249
#        263294
#        280407
#        299562
#        317569
#        336696
#        348144
#
# Disc length: 4794 seconds
#
# Revision: 0
# Processed by: cddbd v1.5.1PL0 Copyright (c) Steve Scherf et al.
# Submitted via: ExactAudioCopy v0.95a3
#
DISCID=5f12b817
DTITLE=FRANCIS GOYA - plays Favourites Hits  vol.1  CD-2   79'53''
DYEAR=2005
DGENRE=Guitar Instrumental
TTITLE0=Natasha
TTITLE1=Sounds of Silence
TTITLE2=Hello Again
TTITLE3=Secret Love
TTITLE4=When You Tell Me That You Love Me
TTITLE5=Winds of Time
TTITLE6=Bridge Over Troubled Water
TTITLE7=Sorry Seems To Be the Hardest
TTITLE8=Love on the Rocks
TTITLE9=Concerto D'Aranjuez
TTITLE10=Jeux Interuts
TTITLE11=Sleepy Shores
TTITLE12=Veronica, Mon Amour
TTITLE13=La Comparsa
TTITLE14=Love Story
TTITLE15=Nuages
TTITLE16=Hello
TTITLE17=I Just Called to Say I Love You
TTITLE18=Maggy M.
TTITLE19=Woman In Love
TTITLE20=Let the Nations Play
TTITLE21=A View to a Kill
TTITLE22=Who Pays the Ferry Man
EXTD=
EXTT0=
EXTT1=
EXTT2=
EXTT3=
EXTT4=
EXTT5=
EXTT6=
EXTT7=
EXTT8=
EXTT9=
EXTT10=
EXTT11=
EXTT12=
EXTT13=
EXTT14=
EXTT15=
EXTT16=
EXTT17=
EXTT18=
EXTT19=
EXTT20=
EXTT21=
EXTT22=
PLAYORDER=
